<svg xmlns="http://www.w3.org/2000/svg" xmlns:xlink="http://www.w3.org/1999/xlink" x="0px" y="0px" viewBox="0 0 481.7 188.9" style="enable-background:new 0 0 481.7 188.9;"><title>logo-go-n</title><path style="fill:#FFFFFF;" d="M436.9,9.7h-67.7c-21.8-0.1-39.9,16.7-41.3,38.4C302.4,4.8,246.6-9.6,203.3,16 c-12.8,7.5-23.5,18.1-31.3,30.7C145.7,3.9,89.6-9.5,46.7,16.8S-9.5,99.3,16.8,142.1s82.4,56.2,125.3,29.9 c12.2-7.5,22.4-17.7,29.9-29.9c26.3,42.9,82.4,56.3,125.3,29.9c12.6-7.8,23.2-18.5,30.7-31.3c1.1,21.9,19.3,39.1,41.3,39H437 c22.9,0,41.4-18.3,41.4-40.8V50.5C478.3,28,459.8,9.7,436.9,9.7z"></path><path style="fill:#1D1E1C;" d="M249.6,188.9c-31,0.1-60-15.1-77.6-40.6c-29.7,42.9-88.6,53.5-131.4,23.8S-12.9,83.5,16.8,40.6 s88.6-53.5,131.4-23.8c9.3,6.4,17.3,14.5,23.8,23.8C189.6,15.1,218.6-0.1,249.6,0c30.3,0.1,58.7,14.6,76.5,39.1 c5.4-19.4,23-32.8,43.2-32.8h67.7c24.7,0,44.7,19.8,44.7,44.2V139c0,24.4-20.1,44.2-44.7,44.2h-67.7c-20.3,0.1-38.1-13.5-43.3-33.2 C308.2,174.4,279.8,188.8,249.6,188.9z M172,135.7l2.9,4.6c15.9,26,44.2,41.9,74.7,41.8c31-0.1,59.6-16.4,75.5-43.1l5.7-9.7 l0.5,11.2c1,20.2,17.7,36,37.9,35.8h67.7c21,0,38-16.8,38-37.5V50.5c0-20.7-17.1-37.5-38-37.5h-67.7c-20.1,0-36.8,15.5-37.9,35.3 l-0.6,11l-5.6-9.4c-15.8-26.6-44.5-43-75.5-43.1c-30.5-0.1-58.8,15.7-74.7,41.8l-2.9,4.6l-2.9-4.6C143.8,7.2,89.8-5.7,48.5,19.7 S-5.7,99.1,19.7,140.4s79.4,54.1,120.7,28.8c11.7-7.2,21.6-17.1,28.8-28.8L172,135.7z"></path><path style="fill:#FB0032;" d="M311.8,58.8c-6.6-11.1-15.8-20.4-26.9-27c-11.2-6.5-23.9-9.9-36.9-9.8l0,0c-13-0.1-25.8,3.4-36.9,10 c-5.6,3.3-10.7,7.2-15.3,11.8c-4.6,4.6-8.5,9.7-11.7,15.3c-6.5,11.2-9.9,24-9.9,37c0,13,3.4,25.7,10,36.9 c3.3,5.7,7.3,10.9,11.9,15.6c4.5,4.4,9.5,8.3,14.9,11.5c3.7,2.2,7.6,4.2,11.7,5.7c4,1.5,8.1,2.6,12.3,3.3c4.3,0.7,8.6,1,12.9,1h0.1 c13,0.1,25.8-3.4,37-10c11.1-6.6,20.3-15.9,26.9-27C325.1,110,325.1,81.7,311.8,58.8L311.8,58.8z M283.8,116.6 c-7.3,12.9-21,20.8-35.8,20.8l0,0c-7.2,0-14.4-1.9-20.6-5.6c-6.4-3.6-11.6-8.9-15.2-15.3c-7.5-12.7-7.5-28.4,0.1-41.1 c3.6-6.3,8.8-11.6,15-15.3c6.3-3.7,13.5-5.6,20.7-5.6l0,0c5.5,0,10.9,1.1,16,3.1c4.9,2.2,9.4,5.3,13.2,9.1c3.8,3.7,6.8,8.2,8.9,13.1 c2.1,5.1,3.1,10.6,3.1,16.2C289.3,103.2,287.4,110.3,283.8,116.6L283.8,116.6z"></path><path style="fill:#94D8D4;" d="M460.5,77.2c0-13.1-1.8-23-5.5-30.3c-6.9-13.7-20.1-20.7-39.2-20.7h-0.1c-8.1-0.1-16.2,1.7-23.5,5.2 c-4,1.9-7.6,4.4-10.9,7.3v-9.9H352l0.1,131h30.4l0-68.3c0-7.5,0.5-13.2,1.4-17c1-3.8,2.9-7.3,5.5-10.3c3.2-4,7.5-6.9,12.4-8.4 c3.4-0.9,6.9-1.3,10.4-1.2l0,0c7.6,0,12.4,2.7,15.2,8.4c1.9,3.8,2.8,9,2.8,15.6l0,81.1h30.4L460.5,77.2z"></path><rect x="325.3" y="86.5" style="fill:#94D8D4;" width="23.1" height="18.8"></rect><path style="fill:#FB0032;" d="M166.7,77.3h-62v30.9h29.6c-7.6,22.4-32,34.4-54.4,26.8c-22.4-7.6-34.4-32-26.8-54.4 s32-34.4,54.4-26.8c6.2,2.1,11.9,5.6,16.5,10.3L146.1,42c-28.9-28.9-75.9-28.9-104.8,0s-28.9,75.9,0,104.8s75.9,28.9,104.8,0 c10.7-10.8,17.9-24.5,20.6-39.5L166.7,77.3z"></path></svg> 
